<?xml version="1.0" encoding="UTF-8"?>
<svg width="700pt" height="700pt" version="1.1" viewBox="0 0 700 700" xmlns="http://www.w3.org/2000/svg">
 <path d="m350 17.5c-144.88 0-262.5 117.62-262.5 262.5s117.62 262.5 262.5 262.5 262.5-117.62 262.5-262.5-117.62-262.5-262.5-262.5zm-43.75 367.5h87.5c9.6602 0 17.5-7.8398 17.5-17.5s-7.8398-17.5-17.5-17.5h-87.5c-9.6602 0-17.5 7.8398-17.5 17.5s7.8398 17.5 17.5 17.5zm-35-87.5h157.5c9.6602 0 17.5-7.8398 17.5-17.5s-7.8398-17.5-17.5-17.5h-157.5c-9.6602 0-17.5 7.8398-17.5 17.5s7.8398 17.5 17.5 17.5zm-35-87.5h227.5c9.6602 0 17.5-7.8398 17.5-17.5s-7.8398-17.5-17.5-17.5h-227.5c-9.6602 0-17.5 7.8398-17.5 17.5s7.8398 17.5 17.5 17.5z" fill-rule="evenodd"/>
</svg>
